<svg version="1.1" id="Layer_1" xmlns="http://www.w3.org/2000/svg" xmlns:xlink="http://www.w3.org/1999/xlink" x="0px" y="0px"
	 width="100%" viewBox="0 0 118 118" enable-background="new 0 0 118 118" xml:space="preserve">
<path fill="#010101" opacity="1.000000" stroke="none" 
	d="
M84.000000,119.000000 
	C56.000000,119.000000 28.500000,119.000000 1.000000,119.000000 
	C1.000000,79.666664 1.000000,40.333332 1.000000,1.000000 
	C40.333332,1.000000 79.666664,1.000000 119.000000,1.000000 
	C119.000000,40.333332 119.000000,79.666664 119.000000,119.000000 
	C107.500000,119.000000 96.000000,119.000000 84.000000,119.000000 
M67.104050,92.613708 
	C72.946236,86.697556 79.006989,80.978294 84.566162,74.807190 
	C89.633690,69.181854 89.626862,60.479828 85.202621,54.026909 
	C81.515877,48.649662 74.839050,46.062443 69.106705,47.789871 
	C72.476059,53.440578 72.273895,54.876209 67.406410,59.745930 
	C60.585884,66.569580 53.649014,73.281723 46.978519,80.248947 
	C42.181622,85.259239 42.304745,92.301994 46.857197,96.725128 
	C51.511875,101.247581 58.265148,101.075851 63.416344,96.281006 
	C64.511391,95.261711 65.540771,94.171867 67.104050,92.613708 
M37.877827,40.410507 
	C31.231691,47.348774 29.650843,55.156147 33.486057,62.100220 
	C37.113689,68.668442 43.751350,71.876350 50.733208,70.435570 
	C47.519859,64.058823 47.684227,63.029606 52.751797,57.958172 
	C58.521122,52.184456 64.343590,46.462811 70.051315,40.628868 
	C75.592888,34.964756 75.966743,28.190369 71.151436,23.454197 
	C66.118340,18.503817 59.642273,18.793308 53.935646,24.365828 
	C48.692089,29.486166 43.558983,34.719616 37.877827,40.410507 
z"/>
<path fill="#FCFCFC" opacity="1.000000" stroke="none" 
	d="
M66.852234,92.864120 
	C65.540771,94.171867 64.511391,95.261711 63.416344,96.281006 
	C58.265148,101.075851 51.511875,101.247581 46.857197,96.725128 
	C42.304745,92.301994 42.181622,85.259239 46.978519,80.248947 
	C53.649014,73.281723 60.585884,66.569580 67.406410,59.745930 
	C72.273895,54.876209 72.476059,53.440578 69.106705,47.789871 
	C74.839050,46.062443 81.515877,48.649662 85.202621,54.026909 
	C89.626862,60.479828 89.633690,69.181854 84.566162,74.807190 
	C79.006989,80.978294 72.946236,86.697556 66.852234,92.864120 
z"/>
<path fill="#FCFCFC" opacity="1.000000" stroke="none" 
	d="
M38.127518,40.156868 
	C43.558983,34.719616 48.692089,29.486166 53.935646,24.365828 
	C59.642273,18.793308 66.118340,18.503817 71.151436,23.454197 
	C75.966743,28.190369 75.592888,34.964756 70.051315,40.628868 
	C64.343590,46.462811 58.521122,52.184456 52.751797,57.958172 
	C47.684227,63.029606 47.519859,64.058823 50.733208,70.435570 
	C43.751350,71.876350 37.113689,68.668442 33.486057,62.100220 
	C29.650843,55.156147 31.231691,47.348774 38.127518,40.156868 
z"/>
</svg>