<?xml version="1.0" encoding="UTF-8" standalone="no"?>
<!-- Created with Inkscape (http://www.inkscape.org/) -->

<svg
   width="1024"
   height="1024"
   viewBox="0 0 1024 1024"
   version="1.1"
   id="svg1"
   inkscape:version="1.4 (86a8ad7, 2024-10-11)"
   sodipodi:docname="icon.svg"
   inkscape:export-filename="icon.png"
   inkscape:export-xdpi="96"
   inkscape:export-ydpi="96"
   xmlns:inkscape="http://www.inkscape.org/namespaces/inkscape"
   xmlns:sodipodi="http://sodipodi.sourceforge.net/DTD/sodipodi-0.dtd"
   xmlns="http://www.w3.org/2000/svg"
   xmlns:svg="http://www.w3.org/2000/svg">
  <sodipodi:namedview
     id="namedview1"
     pagecolor="#8d8d8d"
     bordercolor="#000000"
     borderopacity="0.25"
     inkscape:showpageshadow="2"
     inkscape:pageopacity="0.0"
     inkscape:pagecheckerboard="true"
     inkscape:deskcolor="#727272"
     inkscape:document-units="px"
     labelstyle="default"
     borderlayer="true"
     inkscape:zoom="0.3836709"
     inkscape:cx="406.59847"
     inkscape:cy="714.15372"
     inkscape:window-width="1440"
     inkscape:window-height="830"
     inkscape:window-x="-6"
     inkscape:window-y="-6"
     inkscape:window-maximized="1"
     inkscape:current-layer="layer1" />
  <defs
     id="defs1" />
  <g
     inkscape:label="Layer 1"
     inkscape:groupmode="layer"
     id="layer1">
    <path
       id="path2"
       style="fill:#ffffff"
       d="m 670.37012,238.33764 c -27.05137,-0.12154 -54.20581,10.16479 -74.82032,30.77929 L 444.40332,420.26537 426.13966,438.531 407.87403,456.79467 256.11817,608.55248 c -40.079,40.079 -40.57065,104.75845 -1.47265,145.43945 40.403,42.038 107.79248,42.11963 149.02148,0.89063 L 554.81348,603.73412 573.07716,585.4685 591.34278,567.20482 743.09864,415.44701 c 40.07899,-40.079 40.57066,-104.75845 1.47266,-145.43945 -20.2015,-21.019 -47.1498,-31.54839 -74.20118,-31.66992 z m -336.30664,0.89062 c -39.94751,-0.15141 -79.88339,14.80543 -110.02539,45.04492 -13.026,13.06802 -23.23486,27.87569 -30.63086,43.67969 -12.314,26.307 -16.83279,55.35974 -13.55078,83.67774 0.711,6.13499 8.73774,8.05669 12.05274,2.8457 1.583,-2.488 3.40393,-4.86928 5.46093,-7.11328 19.84101,-21.637 53.49686,-21.95041 74.25586,-1.19141 l 48.94727,48.94727 18.26367,18.26562 146.93946,-146.93945 -18.26369,-18.26563 -23.35155,-23.34961 c -30.191,-30.1905 -70.15014,-45.45015 -110.09766,-45.60156 z m 351.09961,286.60156 -146.93945,146.93946 18.26366,18.26562 23.35158,23.34961 c 60.38198,60.38099 159.83904,61.03561 220.12304,0.55664 13.026,-13.06804 23.23485,-27.87566 30.63086,-43.67969 12.314,-26.307 16.83278,-55.35973 13.55077,-83.67773 -0.71099,-6.13499 -8.73772,-8.05668 -12.05273,-2.8457 -1.58299,2.488 -3.40393,4.86928 -5.46093,7.11328 -19.841,21.637 -53.49686,21.95042 -74.25586,1.19141 l -48.94726,-48.94727 z" />
  </g>
</svg>
