<?xml version="1.0" encoding="UTF-8" standalone="no"?>
<!-- Created with Inkscape (http://www.inkscape.org/) -->

<svg
   width="1024"
   height="1024"
   viewBox="0 0 1024 1024"
   version="1.1"
   id="svg1"
   inkscape:version="1.4 (86a8ad7, 2024-10-11)"
   sodipodi:docname="icon.svg"
   inkscape:export-filename="icon.png"
   inkscape:export-xdpi="96"
   inkscape:export-ydpi="96"
   xmlns:inkscape="http://www.inkscape.org/namespaces/inkscape"
   xmlns:sodipodi="http://sodipodi.sourceforge.net/DTD/sodipodi-0.dtd"
   xmlns="http://www.w3.org/2000/svg"
   xmlns:svg="http://www.w3.org/2000/svg">
  <sodipodi:namedview
     id="namedview1"
     pagecolor="#8d8d8d"
     bordercolor="#000000"
     borderopacity="0.25"
     inkscape:showpageshadow="2"
     inkscape:pageopacity="0.0"
     inkscape:pagecheckerboard="true"
     inkscape:deskcolor="#727272"
     inkscape:document-units="px"
     labelstyle="default"
     borderlayer="true"
     inkscape:zoom="0.19183545"
     inkscape:cx="763.67532"
     inkscape:cy="688.08971"
     inkscape:window-width="1440"
     inkscape:window-height="830"
     inkscape:window-x="-6"
     inkscape:window-y="-6"
     inkscape:window-maximized="1"
     inkscape:current-layer="layer1" />
  <defs
     id="defs1" />
  <g
     inkscape:label="Layer 1"
     inkscape:groupmode="layer"
     id="layer1">
    <path
       id="path99"
       style="fill:#ffffff"
       d="m 352.64637,162.33384 c -6.99681,-0.20005 -14.0037,0.0703 -20.97071,0.8125 -8.18,0.87201 -11.01899,11.41398 -4.33398,16.20898 1.742,1.25 3.4252,2.62219 5.0332,4.11719 21.27499,19.783 21.49515,53.44238 0.95313,73.98438 l -56.20117,56.19922 -23.34961,23.35156 c -60.381,60.382 -61.03564,159.83904 -0.55665,220.12304 13.06802,13.026 27.87569,23.23486 43.67969,30.63086 26.307,12.314 55.35974,16.83279 83.67774,13.55078 6.135,-0.711 8.0567,-8.73773 2.8457,-12.05273 -2.488,-1.583 -4.86928,-3.40394 -7.11328,-5.46094 -21.637,-19.841 -21.95041,-53.49686 -1.19141,-74.25586 l 48.94727,-48.94726 32.98633,-32.98438 c 60.38199,-60.382 61.03568,-159.84003 0.55468,-220.12304 -13.068,-13.026 -27.87569,-23.23484 -43.67968,-30.63086 -19.39801,-9.08249 -40.29082,-13.9233 -61.28125,-14.52344 z m 360.0176,198.23633 c -27.0513,-0.12162 -54.2058,10.1648 -74.8203,30.77929 L 496.33191,532.86118 344.57605,684.619 c -40.079,40.079 -40.57065,104.75845 -1.47265,145.43945 40.403,42.038 107.79248,42.11962 149.02148,0.89062 l 151.14649,-151.14843 142.1211,-142.1211 c 40.079,-40.079 40.5706,-104.75844 1.4727,-145.43945 -20.2015,-21.019 -47.15,-31.54829 -74.2012,-31.66992 z" />
  </g>
</svg>
