<?xml version="1.0" encoding="UTF-8" standalone="no"?>
<!-- Created with Inkscape (http://www.inkscape.org/) -->

<svg
   width="512"
   height="512"
   viewBox="0 0 512 512"
   version="1.1"
   id="svg1"
   inkscape:version="1.4 (86a8ad7, 2024-10-11)"
   xml:space="preserve"
   sodipodi:docname="icon.svg"
   inkscape:export-filename="icon.png"
   inkscape:export-xdpi="96"
   inkscape:export-ydpi="96"
   xmlns:inkscape="http://www.inkscape.org/namespaces/inkscape"
   xmlns:sodipodi="http://sodipodi.sourceforge.net/DTD/sodipodi-0.dtd"
   xmlns="http://www.w3.org/2000/svg"
   xmlns:svg="http://www.w3.org/2000/svg"><sodipodi:namedview
     id="namedview1"
     pagecolor="#8d8d8d"
     bordercolor="#000000"
     borderopacity="0.25"
     inkscape:showpageshadow="2"
     inkscape:pageopacity="0.0"
     inkscape:pagecheckerboard="true"
     inkscape:deskcolor="#727272"
     inkscape:document-units="px"
     labelstyle="default"
     borderlayer="true"
     inkscape:zoom="0.41509787"
     inkscape:cx="558.90434"
     inkscape:cy="274.63403"
     inkscape:window-width="1440"
     inkscape:window-height="878"
     inkscape:window-x="-6"
     inkscape:window-y="-6"
     inkscape:window-maximized="1"
     inkscape:current-layer="layer1" /><defs
     id="defs1"><inkscape:path-effect
   effect="copy_rotate"
   starting_point="184.22223,0"
   origin="-10,0"
   id="path-effect138"
   is_visible="true"
   lpeversion="1.2"
   lpesatellites=""
   method="normal"
   num_copies="3"
   starting_angle="0"
   rotation_angle="120"
   gap="0"
   copies_to_360="true"
   mirror_copies="false"
   split_items="false"
   link_styles="false" /><inkscape:path-effect
   effect="copy_rotate"
   starting_point="194.22223,0"
   origin="0,0"
   id="path-effect137"
   is_visible="true"
   lpeversion="1.2"
   lpesatellites=""
   method="normal"
   num_copies="3"
   starting_angle="0"
   rotation_angle="120"
   gap="0"
   copies_to_360="true"
   mirror_copies="false"
   split_items="false"
   link_styles="false" />

	
	

	
	

		
		
		
		
		
		
		
		
		
		
		
		
		
		
		
		
		
		
		
		
		
		
	
		
		
		
	
			
			
			
			
			
			
			
			
			
			
		
			
		
			
		
				
				
				
			
				
				
				
			
				
				
				
			
				
			
				
				
				
			
				
				
			
				
			
				
				
			
				
				
				
			
				
			
				
			</defs><g
     inkscape:label="Layer 1"
     inkscape:groupmode="layer"
     id="layer1"><g
       id="g138"
       transform="matrix(0.50866873,0,0,0.50866873,-396.33052,-68.064807)"><path
         style="fill:#ffffff"
         d="m 75.402382,-460.98123 c -27.0512,-0.12162 -54.2058,10.16481 -74.82030077,30.77932 L -164.27923,-265.34058 c -60.381,60.382 -61.03565,159.84101 -0.55665,220.124996 13.06801,13.026 27.87569,23.23486 43.67969,30.63086 26.307002,12.3139997 55.359742,16.8308297 83.677742,13.5488297 6.135,-0.711 8.0567,-8.73774 2.8457,-12.0527397 -2.488,-1.583 -4.86928,-3.40198 -7.11328,-5.45898 -21.637,-19.841 -21.95041,-53.496865 -1.19141,-74.255855 L 148.13098,-283.87379 c 40.079,-40.079 40.5707,-104.7565 1.4727,-145.4375 -20.2016,-21.01901 -47.15,-31.54831 -74.201298,-31.66994 z M -451.92265,156.52998 c 13.42028,23.48784 35.90589,41.8612 64.06583,49.40662 l 225.20475,60.34342 C -80.169222,288.3805 6.2921323,239.21794 28.260096,156.6996 33.006938,138.86937 34.44423,120.94111 32.947354,103.55645 30.458089,74.616914 19.843409,47.198089 2.8421132,24.314981 -0.84113084,19.357415 -8.7533416,21.706544 -9.0187155,27.876903 c -0.1269183,2.946171 -0.5115611,5.91791 -1.1709755,8.889771 -6.36431,28.658691 -35.354439,45.758045 -63.711752,38.159719 L -334.9074,4.9914492 C -389.65634,-9.678483 -445.91454,22.234442 -461.59632,76.434804 c -8.1022,28.004606 -3.74664,56.607256 9.67367,80.095176 z m 798.44291,147.92127 c 13.63093,-23.36622 18.29992,-52.02601 10.75448,-80.18594 L 296.9313,-0.93944246 C 274.82945,-83.421922 189.02275,-133.71837 106.57578,-111.48401 c -17.814848,4.80423 -34.05982,12.523622 -48.366944,22.512288 -23.817737,16.625532 -42.255797,39.527528 -53.5725012,65.692635 -2.451756,5.668566 3.5387548,11.346177 9.0151292,8.490818 2.614918,-1.363171 5.380841,-2.51593 8.284255,-3.430791 28.00131,-8.817691 57.304849,7.73882 64.903162,36.096136 L 156.77642,278.88234 c 14.66994,54.74893 70.43644,87.51351 125.21622,73.99415 28.3038,-6.9856 50.89664,-25.05895 64.52762,-48.42524 z"
         id="path92"
         inkscape:path-effect="#path-effect138"
         inkscape:original-d="m 75.402382,-460.98123 c -27.0512,-0.12162 -54.2058,10.16481 -74.82030077,30.77932 L -164.27923,-265.34058 c -60.381,60.382 -61.03565,159.84101 -0.55665,220.124996 13.06801,13.026 27.87569,23.23486 43.67969,30.63086 26.307002,12.3139997 55.359742,16.8308297 83.677742,13.5488297 6.135,-0.711 8.0567,-8.73774 2.8457,-12.0527397 -2.488,-1.583 -4.86928,-3.40198 -7.11328,-5.45898 -21.637,-19.841 -21.95041,-53.496865 -1.19141,-74.255855 L 148.13098,-283.87379 c 40.079,-40.079 40.5707,-104.7565 1.4727,-145.4375 -20.2016,-21.01901 -47.15,-31.54831 -74.201298,-31.66994 z"
         transform="rotate(-135,783.57761,95.482914)"
         inkscape:transform-center-x="177.62939"
         inkscape:transform-center-y="131.04051" /></g></g></svg>
